# xmcd CD database file
#
# Track frame offsets:
#	150
#	24690
#	47642
#	69611
#	90393
#	105033
#	119267
#	138332
#	160989
#	178203
#	197933
#
# Disc length: 2965 seconds
#
# Revision: 3
# Processed by: cddbd v1.5PL3 Copyright (c) Steve Scherf et al.
# Submitted via: CDex 1.51
#
DISCID=910b930b
DTITLE=Fabrizio De Andrè - Mi Innamoravo di Tutto
DYEAR=1997
DGENRE=Italiana
TTITLE0=Coda di lupo
TTITLE1=La canzone di Marinalla (cantata con Mina)
TTITLE2=Sally
TTITLE3=La cattiva strada
TTITLE4=Canto del servo pastore
TTITLE5=Bocca di rosa
TTITLE6=Se ti tagliassero a pezzetti
TTITLE7=Jamin-a
TTITLE8=La canzone dell'amore perduto
TTITLE9=Il bombarolo
TTITLE10=Ave Maria
EXTD=YEAR: 1997
EXTT0=
EXTT1=
EXTT2=
EXTT3=
EXTT4=
EXTT5=
EXTT6=
EXTT7=
EXTT8=
EXTT9=
EXTT10=
PLAYORDER=
